<?xml version='1.0' encoding='utf-8'?>
<svg xmlns:xlink="http://www.w3.org/1999/xlink" xmlns="http://www.w3.org/2000/svg" version="1.1" id="Layer_1" x="0px" y="0px" viewBox="0 0 500 500" style="enable-background:new 0 0 500 500;"> <style type="text/css"> .st0{fill:#8C5523;} .st1{opacity:0.55;} .st2{fill:#E6EFC1;} .st3{opacity:0.1;} .st4{fill:#1B3232;} .st5{fill:#233939;} .st6{fill:#FFFFFF;} .st7{fill:#45BBC6;} .st8{fill:#1B5B56;} .st9{fill:#F9ED32;} .st10{clip-path:url(#SVGID_2_);fill:#878E95;} .st11{clip-path:url(#SVGID_2_);fill:#868D94;} .st12{clip-path:url(#SVGID_2_);fill:#858C93;} .st13{clip-path:url(#SVGID_2_);fill:#848B92;} .st14{clip-path:url(#SVGID_2_);fill:#838A92;} .st15{clip-path:url(#SVGID_2_);fill:#828991;} .st16{clip-path:url(#SVGID_2_);fill:#818890;} .st17{clip-path:url(#SVGID_2_);fill:#80878F;} .st18{clip-path:url(#SVGID_2_);fill:#7F868E;} .st19{clip-path:url(#SVGID_2_);fill:#7E858D;} .st20{clip-path:url(#SVGID_2_);fill:#7D848C;} .st21{clip-path:url(#SVGID_2_);fill:#7C848B;} .st22{clip-path:url(#SVGID_2_);fill:#7B838A;} .st23{clip-path:url(#SVGID_2_);fill:#7A828A;} .st24{clip-path:url(#SVGID_2_);fill:#798189;} .st25{clip-path:url(#SVGID_2_);fill:#788088;} .st26{clip-path:url(#SVGID_2_);fill:#777F87;} .st27{clip-path:url(#SVGID_2_);fill:#767E86;} .st28{clip-path:url(#SVGID_2_);fill:#757D85;} .st29{clip-path:url(#SVGID_2_);fill:#747C84;} .st30{clip-path:url(#SVGID_2_);fill:#737B83;} .st31{clip-path:url(#SVGID_2_);fill:#727A82;} .st32{clip-path:url(#SVGID_2_);fill:#717982;} .st33{clip-path:url(#SVGID_2_);fill:#707881;} .st34{clip-path:url(#SVGID_2_);fill:#6F7780;} .st35{clip-path:url(#SVGID_2_);fill:#6E767F;} .st36{clip-path:url(#SVGID_2_);fill:#6D757E;} .st37{clip-path:url(#SVGID_2_);fill:#6C747D;} .st38{clip-path:url(#SVGID_2_);fill:#6B737C;} .st39{clip-path:url(#SVGID_2_);fill:#6A727B;} .st40{clip-path:url(#SVGID_2_);fill:#69717A;} .st41{clip-path:url(#SVGID_2_);fill:#68717A;} .st42{clip-path:url(#SVGID_2_);fill:#677079;} .st43{clip-path:url(#SVGID_2_);fill:#666F78;} .st44{clip-path:url(#SVGID_2_);fill:#656E77;} .st45{clip-path:url(#SVGID_2_);fill:#646D76;} .st46{clip-path:url(#SVGID_2_);fill:#636C75;} .st47{clip-path:url(#SVGID_2_);fill:#626B74;} .st48{fill:#223939;} .st49{fill:#F7A708;} .st50{fill:#193030;} .st51{filter:url(#Adobe_OpacityMaskFilter);} .st52{filter:url(#Adobe_OpacityMaskFilter_1_);} .st53{mask:url(#SVGID_3_);fill:url(#SVGID_4_);} .st54{opacity:0.2;} .st55{clip-path:url(#SVGID_6_);fill:#FAF6F3;} .st56{clip-path:url(#SVGID_6_);fill:#F9F5F2;} .st57{clip-path:url(#SVGID_6_);fill:#F9F5F1;} .st58{clip-path:url(#SVGID_6_);fill:#F9F4F0;} .st59{clip-path:url(#SVGID_6_);fill:#F8F3EF;} .st60{clip-path:url(#SVGID_6_);fill:#F8F2EE;} .st61{clip-path:url(#SVGID_6_);fill:#F7F2ED;} .st62{clip-path:url(#SVGID_6_);fill:#F7F1EC;} .st63{clip-path:url(#SVGID_6_);fill:#F6F0EB;} .st64{clip-path:url(#SVGID_6_);fill:#F6F0EA;} .st65{clip-path:url(#SVGID_6_);fill:#F5EFE9;} .st66{clip-path:url(#SVGID_6_);fill:#F5EEE8;} .st67{clip-path:url(#SVGID_6_);fill:#F5EDE7;} .st68{clip-path:url(#SVGID_6_);fill:#F4EDE6;} .st69{clip-path:url(#SVGID_6_);fill:#F4ECE5;} .st70{clip-path:url(#SVGID_6_);fill:#F3EBE4;} .st71{clip-path:url(#SVGID_6_);fill:#F3EAE3;} .st72{clip-path:url(#SVGID_6_);fill:#F2EAE2;} .st73{clip-path:url(#SVGID_6_);fill:#F2E9E1;} .st74{clip-path:url(#SVGID_6_);fill:#F2E8E0;} .st75{clip-path:url(#SVGID_6_);fill:#F1E7DF;} .st76{clip-path:url(#SVGID_6_);fill:#F1E7DE;} .st77{clip-path:url(#SVGID_6_);fill:#F0E6DD;} .st78{clip-path:url(#SVGID_6_);fill:#F0E5DC;} .st79{clip-path:url(#SVGID_6_);fill:#EFE4DB;} .st80{clip-path:url(#SVGID_6_);fill:#EFE4DA;} .st81{clip-path:url(#SVGID_6_);fill:#EFE3D9;} .st82{clip-path:url(#SVGID_6_);fill:#EEE2D8;} .st83{clip-path:url(#SVGID_6_);fill:#EEE2D7;} .st84{clip-path:url(#SVGID_6_);fill:#EDE1D6;} .st85{clip-path:url(#SVGID_6_);fill:#EDE0D5;} .st86{clip-path:url(#SVGID_6_);fill:#ECDFD4;} .st87{clip-path:url(#SVGID_6_);fill:#ECDFD3;} .st88{clip-path:url(#SVGID_6_);fill:#ECDED2;} .st89{clip-path:url(#SVGID_6_);fill:#EBDDD1;} .st90{clip-path:url(#SVGID_6_);fill:#EBDCD0;} .st91{clip-path:url(#SVGID_6_);fill:#EADCCF;} .st92{clip-path:url(#SVGID_6_);fill:#EADBCE;} .st93{clip-path:url(#SVGID_6_);fill:#E9DACD;} .st94{clip-path:url(#SVGID_6_);fill:#E9D9CC;} .st95{clip-path:url(#SVGID_6_);fill:#E9D9CB;} .st96{clip-path:url(#SVGID_6_);fill:#E8D8CA;} .st97{clip-path:url(#SVGID_6_);fill:#E8D7C9;} .st98{clip-path:url(#SVGID_6_);fill:#E7D6C8;} .st99{clip-path:url(#SVGID_6_);fill:#E7D6C7;} .st100{clip-path:url(#SVGID_6_);fill:#E6D5C6;} .st101{clip-path:url(#SVGID_6_);fill:#E6D4C5;} .st102{clip-path:url(#SVGID_6_);fill:#E6D4C4;} .st103{clip-path:url(#SVGID_6_);fill:#E5D3C2;} .st104{clip-path:url(#SVGID_6_);fill:#E5D2C1;} .st105{clip-path:url(#SVGID_6_);fill:#E4D1C0;} .st106{clip-path:url(#SVGID_6_);fill:#E4D1BF;} .st107{clip-path:url(#SVGID_6_);fill:#E3D0BE;} .st108{clip-path:url(#SVGID_6_);fill:#E3CFBD;} .st109{clip-path:url(#SVGID_6_);fill:#E2CEBC;} .st110{clip-path:url(#SVGID_6_);fill:#E2CEBB;} .st111{clip-path:url(#SVGID_6_);fill:#E2CDBA;} .st112{clip-path:url(#SVGID_6_);fill:#E1CCB9;} .st113{clip-path:url(#SVGID_6_);fill:#E1CBB8;} .st114{clip-path:url(#SVGID_6_);fill:#E0CBB7;} .st115{clip-path:url(#SVGID_6_);fill:#E0CAB6;} .st116{clip-path:url(#SVGID_6_);fill:#DFC9B5;} .st117{clip-path:url(#SVGID_6_);fill:#DFC8B4;} .st118{clip-path:url(#SVGID_6_);fill:#DFC8B3;} .st119{clip-path:url(#SVGID_6_);fill:#DEC7B2;} .st120{clip-path:url(#SVGID_6_);fill:#DEC6B1;} .st121{clip-path:url(#SVGID_6_);fill:#DDC5B0;} .st122{clip-path:url(#SVGID_6_);fill:#DDC5AF;} .st123{clip-path:url(#SVGID_6_);fill:#DCC4AE;} .st124{clip-path:url(#SVGID_6_);fill:#DCC3AD;} .st125{clip-path:url(#SVGID_6_);fill:#DCC3AC;} .st126{clip-path:url(#SVGID_6_);fill:#DBC2AB;} .st127{clip-path:url(#SVGID_6_);fill:#DBC1AA;} .st128{clip-path:url(#SVGID_6_);fill:#DAC0A9;} .st129{clip-path:url(#SVGID_6_);fill:#DAC0A8;} .st130{clip-path:url(#SVGID_6_);fill:#D9BFA7;} .st131{clip-path:url(#SVGID_6_);fill:#D9BEA6;} .st132{clip-path:url(#SVGID_6_);fill:#D9BDA5;} .st133{clip-path:url(#SVGID_6_);fill:#D8BDA4;} .st134{clip-path:url(#SVGID_6_);fill:#D8BCA3;} .st135{clip-path:url(#SVGID_6_);fill:#D7BBA2;} .st136{clip-path:url(#SVGID_6_);fill:#D7BAA1;} .st137{clip-path:url(#SVGID_6_);fill:#D6BAA0;} .st138{clip-path:url(#SVGID_6_);fill:#D6B99F;} .st139{clip-path:url(#SVGID_6_);fill:#D6B89E;} .st140{clip-path:url(#SVGID_6_);fill:#D5B79D;} .st141{clip-path:url(#SVGID_6_);fill:#D5B79C;} .st142{clip-path:url(#SVGID_6_);fill:#D4B69B;} .st143{clip-path:url(#SVGID_6_);fill:#D4B59A;} .st144{clip-path:url(#SVGID_6_);fill:#D3B599;} .st145{clip-path:url(#SVGID_6_);fill:#D3B498;} .st146{clip-path:url(#SVGID_6_);fill:#D2B397;} .st147{clip-path:url(#SVGID_6_);fill:#D2B296;} .st148{clip-path:url(#SVGID_6_);fill:#D2B295;} .st149{clip-path:url(#SVGID_6_);fill:#D1B194;} .st150{clip-path:url(#SVGID_6_);fill:#D1B093;} .st151{clip-path:url(#SVGID_6_);fill:#D0AF92;} .st152{clip-path:url(#SVGID_6_);fill:#D0AF91;} .st153{clip-path:url(#SVGID_6_);fill:#CFAE90;} .st154{clip-path:url(#SVGID_6_);fill:#CFAD8F;} .st155{clip-path:url(#SVGID_6_);fill:#CFAC8E;} .st156{clip-path:url(#SVGID_6_);fill:#CEAC8D;} .st157{clip-path:url(#SVGID_6_);fill:#CEAB8C;} .st158{clip-path:url(#SVGID_6_);fill:#CDAA8B;} .st159{clip-path:url(#SVGID_6_);fill:#CDA98A;} .st160{clip-path:url(#SVGID_6_);fill:#CCA989;} .st161{clip-path:url(#SVGID_6_);fill:#CCA888;} .st162{fill-rule:evenodd;clip-rule:evenodd;fill:#85D9ED;} .st163{fill-rule:evenodd;clip-rule:evenodd;fill:#85D98D;} .st164{fill-rule:evenodd;clip-rule:evenodd;fill:#FFE4E7;} .st165{fill-rule:evenodd;clip-rule:evenodd;fill:#EE6A55;} .st166{fill-rule:evenodd;clip-rule:evenodd;fill:#54636A;} .st167{fill-rule:evenodd;clip-rule:evenodd;fill:#1BAAB8;} .st168{fill:#85D9ED;} .st169{fill:#1BAAB8;} .st170{fill:#E9F6F8;} .st171{fill:#C4E8ED;} .st172{fill:#54636A;} .st173{fill:#916D4D;} .st174{fill:#98B600;} .st175{fill:#779507;} .st176{fill:#94736A;} .st177{opacity:0.6;} .st178{opacity:0.8;} .st179{fill:#EFF0F0;} .st180{fill:#603913;} .st181{fill:#532800;} .st182{fill:url(#SVGID_7_);} .st183{fill:#FF8C10;} .st184{fill:#FFB31E;} .st185{fill:#FF9400;} .st186{fill:#E2E4E4;} .st187{fill:#F86B00;} .st188{fill:#C3E3E9;} .st189{fill:#B7D967;} .st190{fill:#7CA1B2;} </style> <rect class="st0" width="500" height="500"/> <g class="st1"> <path class="st2" d="M127.5,277.3l-1.5-0.7c1.1-2.5,2.4-5,4.1-7.5l1.4,0.9C129.8,272.5,128.6,274.8,127.5,277.3z M136.5,263.5 l-1.3-1.1c1.7-2,3.6-3.9,5.8-6.1l1.2,1.2C140.1,259.7,138.2,261.6,136.5,263.5z M148.4,251.9l-1.1-1.3c2-1.8,4.2-3.7,6.3-5.5 l1.1,1.3C152.6,248.2,150.5,250,148.4,251.9z M161.1,240.9l-1.1-1.3c2.1-1.8,4.2-3.7,6.2-5.6l1.1,1.2 C165.2,237.2,163.1,239,161.1,240.9z M173.4,229.5l-1.2-1.2c2.1-2.1,4-4,5.8-6l1.2,1.1C177.4,225.4,175.5,227.4,173.4,229.5z M367.4,217.4l-1.5-0.8c1.4-2.4,2.7-4.9,3.8-7.4l1.5,0.7C370.1,212.4,368.8,215,367.4,217.4z M184.7,216.9l-1.3-1 c1.7-2.2,3.4-4.5,4.9-6.7l1.4,0.9C188.1,212.4,186.5,214.7,184.7,216.9z M117.7,210.9l-0.6,0l0-1.7l0.6,0c2.5,0,5.1-0.1,7.7-0.3 l0.1,1.7C122.8,210.8,120.2,210.9,117.7,210.9z M108.7,210.4c-3-0.4-5.8-1-8.3-1.7l0.5-1.6c2.5,0.7,5.2,1.3,8.1,1.7L108.7,210.4z M134,209.6l-0.2-1.7c2.6-0.4,5.4-0.9,8.2-1.4l0.3,1.6C139.4,208.8,136.6,209.3,134,209.6z M150.5,206.3l-0.4-1.6 c0.9-0.2,1.8-0.5,2.7-0.7c1.5-0.4,3.2-1.1,4.9-2l0.8,1.5c-1.8,1-3.6,1.8-5.3,2.2C152.3,205.9,151.4,206.1,150.5,206.3z M92.5,205.3 c-2.5-1.5-4.8-3.3-6.7-5.4l1.2-1.1c1.8,2,3.9,3.7,6.3,5.1L92.5,205.3z M194,202.8l-1.5-0.8c1.3-2.5,2.5-5,3.5-7.5l1.6,0.6 C196.6,197.7,195.4,200.3,194,202.8z M374.5,202.1l-1.6-0.6c0.9-2.6,1.7-5.3,2.3-7.9l1.6,0.4C376.3,196.7,375.4,199.4,374.5,202.1z M165.5,198.5l-1.1-1.3c1.9-1.6,3.9-3.4,6.1-5.6l1.2,1.2C169.4,195.1,167.4,196.9,165.5,198.5z M81,192.8c-1.2-2.5-2-5.2-2.6-8.2 l1.6-0.3c0.5,2.8,1.3,5.4,2.4,7.8L81,192.8z M200.1,187.1l-1.6-0.4c0.6-2.7,1.1-5.5,1.3-8.1l1.7,0.1 C201.2,181.4,200.8,184.2,200.1,187.1z M177.6,186.8l-1.2-1.2c1.8-2,3.7-4,5.7-6.2l1.2,1.1C181.4,182.8,179.4,184.8,177.6,186.8z M378.3,185.7l-1.7-0.2c0.3-2.4,0.4-4.8,0.4-7.2c0-0.3,0-0.7,0-1l1.7,0c0,0.3,0,0.7,0,1.1C378.8,180.7,378.6,183.2,378.3,185.7z M79.4,176.1l-1.7,0c0-2.7,0.2-5.6,0.7-8.5l1.7,0.2C79.7,170.7,79.4,173.4,79.4,176.1z M189,174.4l-1.2-1.1c1.8-2,3.7-4.1,5.7-6.2 l1.2,1.1C192.7,170.3,190.8,172.4,189,174.4z M199.6,170.3c-0.3-2.7-0.8-5.4-1.6-8l1.6-0.5c0.8,2.7,1.4,5.5,1.7,8.3L199.6,170.3z M376.4,169c-0.4-2.7-1-5.4-1.7-8.1l1.6-0.5c0.8,2.7,1.4,5.5,1.8,8.3L376.4,169z M200.3,162.1l-1.2-1.2c1.9-2,3.8-4,5.8-6.1 l1.2,1.2C204.1,158,202.2,160.1,200.3,162.1z M81.8,159.7l-1.6-0.5c0.3-1.1,0.5-1.7,0.5-1.7c0.9-2.2,1.8-4.2,2.9-6.2l1.5,0.8 c-1,1.9-1.9,3.9-2.8,6h0C82.3,158.2,82.1,158.8,81.8,159.7z M194.9,154.7c-1.2-2.4-2.7-4.7-4.4-6.9l1.3-1c1.7,2.3,3.3,4.7,4.6,7.2 L194.9,154.7z M371.9,153.1c-1.1-2.5-2.3-5-3.7-7.4l1.5-0.8c1.4,2.5,2.7,5,3.8,7.6L371.9,153.1z M212,150.1l-1.2-1.2 c2.1-2,4.1-3.9,6.1-5.8l1.1,1.2C216.1,146.2,214.1,148.1,212,150.1z M89.4,145.2l-1.4-1c1.7-2.3,3.5-4.5,5.5-6.5l1.2,1.2 C92.8,140.9,91,143,89.4,145.2z M185,141.6c-1.9-1.9-4.1-3.7-6.3-5.3l1-1.4c2.3,1.7,4.5,3.5,6.5,5.5L185,141.6z M224.4,138.9 l-1.1-1.3c2.2-1.8,4.4-3.6,6.5-5.3l1,1.3C228.8,135.3,226.6,137.1,224.4,138.9z M363.7,138.7c-1.6-2.2-3.4-4.4-5.2-6.4l1.2-1.1 c1.9,2.1,3.7,4.3,5.3,6.6L363.7,138.7z M101,133.6l-1-1.4c2.3-1.7,4.7-3.2,7.2-4.5l0.8,1.5C105.6,130.5,103.2,132,101,133.6z M171.7,131.8c-2.4-1.3-4.9-2.5-7.5-3.6l0.6-1.6c2.6,1.1,5.2,2.3,7.6,3.7L171.7,131.8z M237.6,128.7l-1-1.4c2.3-1.6,4.7-3.2,7-4.6 l0.9,1.4C242.3,125.6,239.9,127.1,237.6,128.7z M352.6,126.4c-2-1.9-4.2-3.6-6.4-5.3l1-1.3c2.2,1.7,4.4,3.5,6.5,5.4L352.6,126.4z M115.6,126l-0.5-1.6c2.6-0.9,5.4-1.6,8.2-2.2l0.3,1.6C120.9,124.4,118.2,125.2,115.6,126z M156.4,125.5c-2.7-0.8-5.4-1.4-8.1-1.8 l0.3-1.7c2.8,0.5,5.6,1.1,8.3,1.9L156.4,125.5z M131.8,122.9l-0.1-1.7c2.8-0.2,5.6-0.2,8.5-0.1l-0.1,1.7 C137.3,122.7,134.5,122.7,131.8,122.9z M251.8,120l-0.8-1.5c2.5-1.3,5.1-2.6,7.6-3.7l0.7,1.5C256.8,117.5,254.3,118.7,251.8,120z M339.3,116.5c-2.5-1.5-4.9-2.8-7.3-3.8l0.7-1.5c2.5,1.1,5,2.4,7.5,3.9L339.3,116.5z M267,113.2l-0.6-1.6c2.7-1,5.4-1.8,8-2.5 l0.4,1.6C272.3,111.5,269.6,112.3,267,113.2z M324.2,109.9c-0.5-0.1-1-0.2-1.5-0.3c-2.2-0.5-4.5-0.9-6.7-1.2l0.2-1.7 c2.2,0.3,4.5,0.7,6.8,1.2c0.5,0.1,1,0.2,1.5,0.4L324.2,109.9z M283,108.9l-0.3-1.6c2.8-0.5,5.6-0.9,8.4-1.2l0.2,1.7 C288.5,108,285.7,108.4,283,108.9z M307.8,107.5c-2.8-0.2-5.6-0.3-8.3-0.2l0-1.7c2.8,0,5.6,0,8.4,0.2L307.8,107.5z"/> </g> <g class="st3"> <path class="st4" d="M141.9,194c0,2-1.6,3.6-3.6,3.6h-31.6c-2,0-3.6-1.6-3.6-3.6v-47.3c0-2,1.6-3.6,3.6-3.6h31.6 c2,0,3.6,1.6,3.6,3.6V194z"/> </g> <g> <path class="st5" d="M370.2,194.9v-25.5c0-4.4-3.5-7.9-7.9-7.9h-202c-4.4,0-7.9,3.5-7.9,7.9V196L370.2,194.9z"/> </g> <g class="st3"> <rect x="315.5" y="282.2" class="st4" width="42.1" height="25.7"/> </g> <g id="business_card_3_"> <g> <rect x="314.7" y="281.1" class="st6" width="42.1" height="25.7"/> </g> <g> <path class="st7" d="M325,286.8c0-1.7-1.4-3-3-3c-1.7,0-3,1.4-3,3c0,1.7,1.4,3,3,3C323.6,289.9,325,288.5,325,286.8z"/> </g> <g> <rect x="328.5" y="290.2" class="st4" width="18.5" height="1.8"/> </g> <g> <rect x="328.5" y="294.6" class="st4" width="10.1" height="1.8"/> </g> <g> <rect x="340.2" y="294.6" class="st4" width="10.1" height="1.8"/> </g> <g> <rect x="328.5" y="297.7" class="st4" width="5.8" height="1.1"/> </g> <g> <rect x="336.5" y="297.7" class="st4" width="5.8" height="1.1"/> </g> <g> <rect x="344.4" y="297.7" class="st4" width="5.8" height="1.1"/> </g> </g> <g id="calculator_2_"> <g> <path class="st2" d="M139.6,192.1c0,2-1.6,3.6-3.6,3.6h-31.6c-2,0-3.6-1.6-3.6-3.6v-47.3c0-2,1.6-3.6,3.6-3.6H136 c2,0,3.6,1.6,3.6,3.6V192.1z"/> </g> <g> <rect x="105.6" y="147" class="st8" width="29.3" height="13.6"/> </g> <g> <rect x="127.7" y="154.8" class="st9" width="2.6" height="2.7"/> </g> <g> <rect x="127.7" y="150.5" class="st9" width="2.6" height="2.7"/> </g> <g> <rect x="122.6" y="154.8" class="st9" width="2.6" height="2.7"/> </g> <g> <rect x="122.6" y="150.5" class="st9" width="2.6" height="2.7"/> </g> <g> <rect x="117.6" y="154.8" class="st9" width="2.6" height="2.7"/> </g> <g> <g> <path class="st8" d="M113,169.4c0,0.7-0.5,1.2-1.2,1.2h-4.8c-0.7,0-1.2-0.5-1.2-1.2V167c0-0.7,0.5-1.2,1.2-1.2h4.8 c0.7,0,1.2,0.5,1.2,1.2V169.4z"/> </g> </g> <g> <g> <path class="st8" d="M113,178.9c0,0.7-0.5,1.2-1.2,1.2h-4.8c-0.7,0-1.2-0.5-1.2-1.2v-2.4c0-0.7,0.5-1.2,1.2-1.2h4.8 c0.7,0,1.2,0.5,1.2,1.2V178.9z"/> </g> </g> <g> <g> <path class="st8" d="M113,188.4c0,0.7-0.5,1.2-1.2,1.2h-4.8c-0.7,0-1.2-0.5-1.2-1.2V186c0-0.7,0.5-1.2,1.2-1.2h4.8 c0.7,0,1.2,0.5,1.2,1.2V188.4z"/> </g> </g> <g> <g> <path class="st8" d="M123.9,169.4c0,0.7-0.5,1.2-1.2,1.2h-4.8c-0.7,0-1.2-0.5-1.2-1.2V167c0-0.7,0.5-1.2,1.2-1.2h4.8 c0.7,0,1.2,0.5,1.2,1.2V169.4z"/> </g> <g> <path class="st8" d="M123.9,178.9c0,0.7-0.5,1.2-1.2,1.2h-4.8c-0.7,0-1.2-0.5-1.2-1.2v-2.4c0-0.7,0.5-1.2,1.2-1.2h4.8 c0.7,0,1.2,0.5,1.2,1.2V178.9z"/> </g> <g> <path class="st8" d="M123.9,188.4c0,0.7-0.5,1.2-1.2,1.2h-4.8c-0.7,0-1.2-0.5-1.2-1.2V186c0-0.7,0.5-1.2,1.2-1.2h4.8 c0.7,0,1.2,0.5,1.2,1.2V188.4z"/> </g> </g> <g> <g> <g> <path class="st8" d="M134.9,169.4c0,0.7-0.5,1.2-1.2,1.2h-4.8c-0.7,0-1.2-0.5-1.2-1.2V167c0-0.7,0.5-1.2,1.2-1.2h4.8 c0.7,0,1.2,0.5,1.2,1.2V169.4z"/> </g> </g> <g> <g> <path class="st8" d="M134.9,178.9c0,0.7-0.5,1.2-1.2,1.2h-4.8c-0.7,0-1.2-0.5-1.2-1.2v-2.4c0-0.7,0.5-1.2,1.2-1.2h4.8 c0.7,0,1.2,0.5,1.2,1.2V178.9z"/> </g> </g> <g> <g> <path class="st8" d="M134.9,188.4c0,0.7-0.5,1.2-1.2,1.2h-4.8c-0.7,0-1.2-0.5-1.2-1.2V186c0-0.7,0.5-1.2,1.2-1.2h4.8 c0.7,0,1.2,0.5,1.2,1.2V188.4z"/> </g> </g> </g> <g class="st3"> <g> <defs> <rect id="SVGID_1_" x="105.7" y="146.9" width="0.9" height="13.4"/> </defs> <clipPath id="SVGID_2_"> <use xlink:href="#SVGID_1_" style="overflow:visible;"/> </clipPath> <rect x="106.5" y="146.9" class="st10" width="0" height="13.4"/> <rect x="106.5" y="146.9" class="st11" width="0" height="13.4"/> <rect x="106.5" y="146.9" class="st12" width="0" height="13.4"/> <rect x="106.5" y="146.9" class="st13" width="0" height="13.4"/> <rect x="106.4" y="146.9" class="st14" width="0" height="13.4"/> <rect x="106.4" y="146.9" class="st15" width="0" height="13.4"/> <rect x="106.4" y="146.9" class="st16" width="0" height="13.4"/> <rect x="106.4" y="146.9" class="st17" width="0" height="13.4"/> <rect x="106.4" y="146.9" class="st18" width="0" height="13.4"/> <rect x="106.3" y="146.9" class="st19" width="0" height="13.4"/> <rect x="106.3" y="146.9" class="st20" width="0" height="13.4"/> <rect x="106.3" y="146.9" class="st21" width="0" height="13.4"/> <rect x="106.3" y="146.9" class="st22" width="0" height="13.4"/> <rect x="106.2" y="146.9" class="st23" width="0" height="13.4"/> <rect x="106.2" y="146.9" class="st24" width="0" height="13.4"/> <rect x="106.2" y="146.9" class="st25" width="0" height="13.4"/> <rect x="106.2" y="146.9" class="st26" width="0" height="13.4"/> <rect x="106.1" y="146.9" class="st27" width="0" height="13.4"/> <rect x="106.1" y="146.9" class="st28" width="0" height="13.4"/> <rect x="106.1" y="146.9" class="st29" width="0" height="13.4"/> <rect x="106.1" y="146.9" class="st30" width="0" height="13.4"/> <rect x="106" y="146.9" class="st31" width="0" height="13.4"/> <rect x="106" y="146.9" class="st32" width="0" height="13.4"/> <rect x="106" y="146.9" class="st33" width="0" height="13.4"/> <rect x="106" y="146.9" class="st34" width="0" height="13.4"/> <rect x="105.9" y="146.9" class="st35" width="0" height="13.4"/> <rect x="105.9" y="146.9" class="st36" width="0" height="13.4"/> <rect x="105.9" y="146.9" class="st37" width="0" height="13.4"/> <rect x="105.9" y="146.9" class="st38" width="0" height="13.4"/> <rect x="105.8" y="146.9" class="st39" width="0" height="13.4"/> <rect x="105.8" y="146.9" class="st40" width="0" height="13.4"/> <rect x="105.8" y="146.9" class="st41" width="0" height="13.4"/> <rect x="105.8" y="146.9" class="st42" width="0" height="13.4"/> <rect x="105.8" y="146.9" class="st43" width="0" height="13.4"/> <rect x="105.7" y="146.9" class="st44" width="0" height="13.4"/> <rect x="105.7" y="146.9" class="st45" width="0" height="13.4"/> <rect x="105.7" y="146.9" class="st46" width="0" height="13.4"/> <rect x="105.7" y="146.9" class="st47" width="0" height="13.4"/> </g> </g> </g> <g> <path class="st48" d="M152.4,196l6.5,13.3c3.2,5.3,9.2,25.7,10.4,25.7h184.1c0.9,0,7.4-21.7,10.4-26.9c2.9-5.2,6.5-13.1,6.5-13.1 L152.4,196z"/> </g> <g> <path class="st49" d="M298.1,175.4h-4.4c-1.7,0-3.1-1.4-3.1-3.1l0,0c0-1.7,1.4-3.1,3.1-3.1h4.4c1.7,0,3.1,1.4,3.1,3.1l0,0 C301.2,174,299.8,175.4,298.1,175.4z"/> </g> <g> <path class="st49" d="M232,175.4h-4.4c-1.7,0-3.1-1.4-3.1-3.1l0,0c0-1.7,1.4-3.1,3.1-3.1h4.4c1.7,0,3.1,1.4,3.1,3.1l0,0 C235.1,174,233.7,175.4,232,175.4z"/> </g> <g> <path class="st50" d="M370.2,194.9c0,0-50.7,21.4-108.2,21.4s-109.2-21.1-109.2-21.1L370.2,194.9z"/> </g> <g> <path class="st49" d="M267.7,215.3h-11.2l1.3,4.1c0.4,1.2,1.5,2,2.8,2h3.1c1.3,0,2.4-0.8,2.8-2L267.7,215.3z"/> </g> <g> <g class="st3"> <path class="st4" d="M427.7,291.8c0,2.5-1.6,4.5-3.6,4.5h-31.6c-2,0-3.6-2-3.6-4.5v-59c0-2.5,1.6-4.5,3.6-4.5h31.6 c2,0,3.6,2,3.6,4.5V291.8z"/> </g> <g> <g> <g id="phone_2_"> <g> <path class="st48" d="M425.1,289.3c0,2-1.4,3.6-3.2,3.6l-31.5,0.4c-1.8,0-3.2-1.6-3.2-3.6l-0.7-59.9c0-2,1.4-3.6,3.2-3.6 l31.5-0.4c1.8,0,3.2,1.6,3.2,3.5L425.1,289.3z"/> </g> <g> <rect x="389.8" y="231.2" transform="matrix(0.9999 -1.196866e-02 1.196866e-02 0.9999 -3.0437 4.8742)" class="st6" width="31.8" height="51"/> </g> </g> <defs> <filter id="Adobe_OpacityMaskFilter" filterUnits="userSpaceOnUse" x="389.4" y="231" width="32.4" height="51"> <feFlood style="flood-color:white;flood-opacity:1" result="back"/> <feBlend in="SourceGraphic" in2="back" mode="normal"/> </filter> </defs> <mask maskUnits="userSpaceOnUse" x="389.4" y="231" width="32.4" height="51" id="SVGID_3_"> <g class="st51"> <defs> <filter id="Adobe_OpacityMaskFilter_1_" filterUnits="userSpaceOnUse" x="389.2" y="231.8" width="31.5" height="54.7"> <feFlood style="flood-color:white;flood-opacity:1" result="back"/> <feBlend in="SourceGraphic" in2="back" mode="normal"/> </filter> </defs> <mask maskUnits="userSpaceOnUse" x="389.2" y="231.8" width="31.5" height="54.7" id="SVGID_3_"> <g class="st52"> </g> </mask> <linearGradient id="SVGID_4_" gradientUnits="userSpaceOnUse" x1="93.3524" y1="-125.9412" x2="87.4745" y2="-172.4299" gradientTransform="matrix(0.9916 0.1292 -0.1292 0.9916 295.9001 404.1799)"> <stop offset="0" style="stop-color:#000000"/> <stop offset="1" style="stop-color:#FFFFFF"/> </linearGradient> <polygon class="st53" points="389.2,231.8 414.1,286.5 420.7,235.9 "/> </g> </mask> <g class="st54"> <g> <defs> <polygon id="SVGID_5_" points="389.4,231.4 421.8,282 421.2,231 "/> </defs> <clipPath id="SVGID_6_"> <use xlink:href="#SVGID_5_" style="overflow:visible;"/> </clipPath> <polygon class="st55" points="389.4,281.7 421.8,281.8 421.8,282 389.4,282 "/> <polygon class="st56" points="389.4,281.3 421.8,281.5 421.8,281.8 389.4,281.7 "/> <polygon class="st57" points="389.4,281 421.8,281.1 421.8,281.5 389.4,281.3 "/> <polygon class="st58" points="389.4,280.6 421.8,280.7 421.8,281.1 389.4,281 "/> <polygon class="st59" points="389.4,280.2 421.8,280.3 421.8,280.7 389.4,280.6 "/> <polygon class="st60" points="389.4,279.9 421.8,280 421.8,280.3 389.4,280.2 "/> <polygon class="st61" points="389.4,279.5 421.8,279.6 421.8,280 389.4,279.9 "/> <polygon class="st62" points="389.4,279.1 421.8,279.2 421.8,279.6 389.4,279.5 "/> <polygon class="st63" points="389.4,278.8 421.8,278.9 421.8,279.2 389.4,279.1 "/> <polygon class="st64" points="389.4,278.4 421.8,278.5 421.8,278.9 389.4,278.8 "/> <polygon class="st65" points="389.4,278 421.8,278.1 421.8,278.5 389.4,278.4 "/> <polygon class="st66" points="389.4,277.6 421.8,277.8 421.8,278.1 389.4,278 "/> <polygon class="st67" points="389.4,277.3 421.8,277.4 421.8,277.8 389.4,277.6 "/> <polygon class="st68" points="389.4,276.9 421.8,277 421.8,277.4 389.4,277.3 "/> <polygon class="st69" points="389.4,276.5 421.8,276.7 421.8,277 389.4,276.9 "/> <polygon class="st70" points="389.4,276.2 421.8,276.3 421.8,276.7 389.4,276.5 "/> <polygon class="st71" points="389.4,275.8 421.8,275.9 421.8,276.3 389.4,276.2 "/> <polygon class="st72" points="389.4,275.4 421.8,275.6 421.8,275.9 389.4,275.8 "/> <polygon class="st73" points="389.4,275.1 421.8,275.2 421.8,275.6 389.4,275.4 "/> <polygon class="st74" points="389.4,274.7 421.8,274.8 421.8,275.2 389.4,275.1 "/> <polygon class="st75" points="389.4,274.3 421.8,274.5 421.8,274.8 389.4,274.7 "/> <polygon class="st76" points="389.4,274 421.8,274.1 421.8,274.5 389.4,274.3 "/> <polygon class="st77" points="389.4,273.6 421.8,273.7 421.8,274.1 389.4,274 "/> <polygon class="st78" points="389.4,273.2 421.8,273.4 421.8,273.7 389.4,273.6 "/> <polygon class="st79" points="389.4,272.9 421.8,273 421.8,273.4 389.4,273.2 "/> <polygon class="st80" points="389.4,272.5 421.8,272.6 421.8,273 389.4,272.9 "/> <polygon class="st81" points="389.4,272.1 421.8,272.3 421.8,272.6 389.4,272.5 "/> <polygon class="st82" points="389.4,271.8 421.8,271.9 421.8,272.3 389.4,272.1 "/> <polygon class="st83" points="389.4,271.4 421.8,271.5 421.8,271.9 389.4,271.8 "/> <polygon class="st84" points="389.4,271 421.8,271.2 421.8,271.5 389.4,271.4 "/> <polygon class="st85" points="389.4,270.7 421.8,270.8 421.8,271.2 389.4,271 "/> <polygon class="st86" points="389.4,270.3 421.8,270.4 421.8,270.8 389.4,270.7 "/> <polygon class="st87" points="389.4,269.9 421.8,270 421.8,270.4 389.4,270.3 "/> <polygon class="st88" points="389.4,269.6 421.8,269.7 421.8,270 389.4,269.9 "/> <polygon class="st89" points="389.4,269.2 421.8,269.3 421.8,269.7 389.4,269.6 "/> <polygon class="st90" points="389.4,268.8 421.8,268.9 421.8,269.3 389.4,269.2 "/> <polygon class="st91" points="389.4,268.5 421.8,268.6 421.8,268.9 389.4,268.8 "/> <polygon class="st92" points="389.4,268.1 421.8,268.2 421.8,268.6 389.4,268.5 "/> <polygon class="st93" points="389.4,267.7 421.8,267.8 421.8,268.2 389.4,268.1 "/> <polygon class="st94" points="389.4,267.3 421.8,267.5 421.8,267.8 389.4,267.7 "/> <polygon class="st95" points="389.4,267 421.8,267.1 421.8,267.5 389.4,267.3 "/> <polygon class="st96" points="389.4,266.6 421.8,266.7 421.8,267.1 389.4,267 "/> <polygon class="st97" points="389.4,266.2 421.8,266.4 421.8,266.7 389.4,266.6 "/> <polygon class="st98" points="389.4,265.9 421.8,266 421.8,266.4 389.4,266.2 "/> <polygon class="st99" points="389.4,265.5 421.8,265.6 421.8,266 389.4,265.9 "/> <polygon class="st100" points="389.4,265.1 421.8,265.3 421.8,265.6 389.4,265.5 "/> <polygon class="st101" points="389.4,264.8 421.8,264.9 421.8,265.3 389.4,265.1 "/> <polygon class="st102" points="389.4,264.4 421.8,264.5 421.8,264.9 389.4,264.8 "/> <polygon class="st103" points="389.4,264 421.8,264.2 421.8,264.5 389.4,264.4 "/> <polygon class="st104" points="389.4,263.7 421.8,263.8 421.8,264.2 389.4,264 "/> <polygon class="st105" points="389.4,263.3 421.8,263.4 421.8,263.8 389.4,263.7 "/> <polygon class="st106" points="389.4,262.9 421.8,263.1 421.8,263.4 389.4,263.3 "/> <polygon class="st107" points="389.4,262.6 421.8,262.7 421.8,263.1 389.4,262.9 "/> <polygon class="st108" points="389.4,262.2 421.8,262.3 421.8,262.7 389.4,262.6 "/> <polygon class="st109" points="389.4,261.8 421.8,262 421.8,262.3 389.4,262.2 "/> <polygon class="st110" points="389.4,261.5 421.8,261.6 421.8,262 389.4,261.8 "/> <polygon class="st111" points="389.4,261.1 421.8,261.2 421.8,261.6 389.4,261.5 "/> <polygon class="st112" points="389.4,260.7 421.8,260.9 421.8,261.2 389.4,261.1 "/> <polygon class="st113" points="389.4,260.4 421.8,260.5 421.8,260.9 389.4,260.7 "/> <polygon class="st114" points="389.4,260 421.8,260.1 421.8,260.5 389.4,260.4 "/> <polygon class="st115" points="389.4,259.6 421.8,259.7 421.8,260.1 389.4,260 "/> <polygon class="st116" points="389.4,259.3 421.8,259.4 421.8,259.7 389.4,259.6 "/> <polygon class="st117" points="389.4,258.9 421.8,259 421.8,259.4 389.4,259.3 "/> <polygon class="st118" points="389.4,258.5 421.8,258.6 421.8,259 389.4,258.9 "/> <polygon class="st119" points="389.4,258.2 421.8,258.3 421.8,258.6 389.4,258.5 "/> <polygon class="st120" points="389.4,257.8 421.8,257.9 421.8,258.3 389.4,258.2 "/> <polygon class="st121" points="389.4,257.4 421.8,257.5 421.8,257.9 389.4,257.8 "/> <polygon class="st122" points="389.4,257 421.8,257.2 421.8,257.5 389.4,257.4 "/> <polygon class="st123" points="389.4,256.7 421.8,256.8 421.8,257.2 389.4,257 "/> <polygon class="st124" points="389.4,256.3 421.8,256.4 421.8,256.8 389.4,256.7 "/> <polygon class="st125" points="389.4,255.9 421.8,256.1 421.8,256.4 389.4,256.3 "/> <polygon class="st126" points="389.4,255.6 421.8,255.7 421.8,256.1 389.4,255.9 "/> <polygon class="st127" points="389.4,255.2 421.8,255.3 421.8,255.7 389.4,255.6 "/> <polygon class="st128" points="389.4,254.8 421.8,255 421.8,255.3 389.4,255.2 "/> <polygon class="st129" points="389.4,254.5 421.8,254.6 421.8,255 389.4,254.8 "/> <polygon class="st130" points="389.4,254.1 421.8,254.2 421.8,254.6 389.4,254.5 "/> <polygon class="st131" points="389.4,253.7 421.8,253.9 421.8,254.2 389.4,254.1 "/> <polygon class="st132" points="389.4,253.4 421.8,253.5 421.8,253.9 389.4,253.7 "/> <polygon class="st133" points="389.4,253 421.8,253.1 421.8,253.5 389.4,253.4 "/> <polygon class="st134" points="389.4,252.6 421.8,252.8 421.8,253.1 389.4,253 "/> <polygon class="st135" points="389.4,252.3 421.8,252.4 421.8,252.8 389.4,252.6 "/> <polygon class="st136" points="389.4,251.9 421.8,252 421.8,252.4 389.4,252.3 "/> <polygon class="st137" points="389.4,251.5 421.8,251.7 421.8,252 389.4,251.9 "/> <polygon class="st138" points="389.4,251.2 421.8,251.3 421.8,251.7 389.4,251.5 "/> <polygon class="st139" points="389.4,250.8 421.8,250.9 421.8,251.3 389.4,251.2 "/> <polygon class="st140" points="389.4,250.4 421.8,250.5 421.8,250.9 389.4,250.8 "/> <polygon class="st141" points="389.4,250.1 421.8,250.2 421.8,250.5 389.4,250.4 "/> <polygon class="st142" points="389.4,249.7 421.8,249.8 421.8,250.2 389.4,250.1 "/> <polygon class="st143" points="389.4,249.3 421.8,249.4 421.8,249.8 389.4,249.7 "/> <polygon class="st144" points="389.4,249 421.8,249.1 421.8,249.4 389.4,249.3 "/> <polygon class="st145" points="389.4,248.6 421.8,248.7 421.8,249.1 389.4,249 "/> <polygon class="st146" points="389.4,248.2 421.8,248.3 421.8,248.7 389.4,248.6 "/> <polygon class="st147" points="389.4,247.9 421.8,248 421.8,248.3 389.4,248.2 "/> <polygon class="st148" points="389.4,247.5 421.8,247.6 421.8,248 389.4,247.9 "/> <polygon class="st149" points="389.4,247.1 421.8,247.2 421.8,247.6 389.4,247.5 "/> <polygon class="st150" points="389.4,246.7 421.8,246.9 421.8,247.2 389.4,247.1 "/> <polygon class="st151" points="389.4,246.4 421.8,246.5 421.8,246.9 389.4,246.7 "/> <polygon class="st152" points="389.4,246 421.8,246.1 421.8,246.5 389.4,246.4 "/> <polygon class="st153" points="389.4,245.6 421.8,245.8 421.8,246.1 389.4,246 "/> <polygon class="st154" points="389.4,245.3 421.8,245.4 421.8,245.8 389.4,245.6 "/> <polygon class="st155" points="389.4,244.9 421.8,245 421.8,245.4 389.4,245.3 "/> <polygon class="st156" points="389.4,244.5 421.8,244.7 421.8,245 389.4,244.9 "/> <polygon class="st157" points="389.4,244.2 421.8,244.3 421.8,244.7 389.4,244.5 "/> <polygon class="st158" points="389.4,243.8 421.8,243.9 421.8,244.3 389.4,244.2 "/> <polygon class="st159" points="389.4,243.4 421.8,243.6 421.8,243.9 389.4,243.8 "/> <polygon class="st160" points="389.4,243.1 421.8,243.2 421.8,243.6 389.4,243.4 "/> <polygon class="st161" points="389.4,242.7 421.8,242.8 421.8,243.2 389.4,243.1 "/> <polygon class="st161" points="421.8,242.8 389.4,242.7 389.4,231 421.8,231 "/> </g> </g> <g> <path class="st162" d="M395.7,248.3c0-0.8-0.6-1.4-1.4-1.4c-0.8,0-1.4,0.6-1.4,1.4c0,0.8,0.6,1.4,1.4,1.4 C395.1,249.7,395.7,249.1,395.7,248.3z"/> </g> <g> <path class="st163" d="M395.8,254.1c0-0.8-0.6-1.4-1.4-1.4c-0.8,0-1.4,0.6-1.4,1.4c0,0.8,0.6,1.4,1.4,1.4 C395.2,255.5,395.8,254.9,395.8,254.1z"/> </g> <g> <path class="st164" d="M395.9,259.7c0-0.8-0.6-1.4-1.4-1.4c-0.8,0-1.4,0.6-1.4,1.4c0,0.8,0.6,1.4,1.4,1.4 C395.3,261.1,395.9,260.4,395.9,259.7z"/> </g> <g> <path class="st165" d="M395.9,266c0-0.8-0.6-1.4-1.4-1.4c-0.8,0-1.4,0.6-1.4,1.4c0,0.8,0.6,1.4,1.4,1.4 C395.3,267.4,395.9,266.7,395.9,266z"/> </g> <g> <rect x="402" y="228.6" transform="matrix(0.9999 -1.178482e-02 1.178482e-02 0.9999 -2.6686 4.7976)" class="st166" width="7.4" height="0.6"/> </g> <g> <rect x="389.5" y="231.1" transform="matrix(0.9999 -1.188053e-02 1.188053e-02 0.9999 -2.7458 4.8332)" class="st167" width="31.8" height="4.9"/> </g> <g> <rect x="390.1" y="274.3" transform="matrix(0.9999 -1.193991e-02 1.193991e-02 0.9999 -3.2936 4.8671)" class="st167" width="31.8" height="7.9"/> </g> <g> <g> <g> <g> <g> <path class="st168" d="M408.2,276.4L406,278l-2.4-1.5c0,0,0,0,0,0l0,2.6c0,0.2,0.1,0.3,0.3,0.3l4,0c0.2,0,0.3-0.1,0.3-0.3 L408.2,276.4C408.2,276.5,408.2,276.4,408.2,276.4z"/> </g> </g> <g> <g> <path class="st168" d="M408,276c0,0-0.1,0-0.1,0l-4,0c0,0-0.1,0-0.1,0l2.2,1.4L408,276z"/> </g> </g> </g> </g> </g> <g> <rect x="399.6" y="258.8" transform="matrix(0.9999 -1.203741e-02 1.203741e-02 0.9999 -3.0989 4.9389)" class="st169" width="18.2" height="2.2"/> </g> <g> <rect x="399.9" y="265.8" transform="matrix(0.9999 -1.202924e-02 1.202924e-02 0.9999 -3.1803 4.9393)" class="st169" width="18.2" height="2.2"/> </g> </g> <g> <path class="st167" d="M408.2,250.1l-0.2,0c1-0.5,1.2-1.8,1.2-3.2c0-1.9-0.3-3.2-2.4-3.1c-2.1,0-2.3,1.2-2.3,3.1 c0,1.4,0,2.7,1,3.2c-0.6,0-1.4,0.2-1.9,0.5c-0.7,0.5-0.9,1.4-0.9,2.3l0,0.6l8.3,0.1l0-0.6C411.1,251.5,410.9,250.2,408.2,250.1z"/> </g> </g> </g> <g id="project_chart_1_"> <g> <polygon class="st6" points="150,383.8 163,376.6 244.2,331.7 206.2,263 112,315.1 141.2,367.9 "/> </g> <g> <path class="st170" d="M151.3,381.4l-36.6-66.1l91.1-50.4l36.6,66.1L151.3,381.4z M117.1,315.9l34.9,63.1l88.2-48.8l-34.9-63.1 L117.1,315.9z"/> </g> <g> <rect x="131.8" y="303.1" transform="matrix(0.875 -0.4841 0.4841 0.875 -149.9608 110.6287)" class="st171" width="14.8" height="85.2"/> </g> <g class="st3"> <g> <rect x="148.6" y="378.2" transform="matrix(0.8751 -0.4839 0.4839 0.8751 -163.5121 123.5671)" class="st172" width="18.2" height="0.7"/> </g> </g> <g> <g> <path class="st172" d="M134.5,339.1c-2.8,0-5.2-1.2-6.4-3.3c-2-3.6,0.2-8.5,4.7-11c1.7-1,3.6-1.5,5.5-1.5c2.8,0,5.2,1.2,6.4,3.3 c1,1.7,1,3.9,0.1,6c-0.9,2.1-2.6,3.9-4.8,5.1C138.2,338.6,136.3,339.1,134.5,339.1z M138.3,324.1c-1.7,0-3.5,0.5-5.1,1.4 c-4.2,2.3-6.1,6.8-4.4,9.9c1,1.8,3.1,2.9,5.7,2.9c1.7,0,3.5-0.5,5.1-1.4c2-1.1,3.6-2.8,4.4-4.7c0.8-1.9,0.8-3.7,0-5.2 C142.9,325.2,140.8,324.1,138.3,324.1z"/> </g> <g> <path class="st172" d="M154.7,328.4l-6.2-11.3l21-11.6l6.2,11.3L154.7,328.4z M149.6,317.5l5.4,9.8l19.5-10.8l-5.4-9.8 L149.6,317.5z"/> </g> <g> <path class="st172" d="M210.4,324.7l-6.2-11.3l12.8-7.1l6.2,11.3L210.4,324.7z M205.3,313.8l5.4,9.8l11.3-6.3l-5.4-9.8 L205.3,313.8z"/> </g> <g> <path class="st172" d="M166.2,349.2l-6.2-11.3l12.8-7.1l6.2,11.3L166.2,349.2z M161.1,338.3l5.4,9.8l11.3-6.3l-5.4-9.8 L161.1,338.3z"/> </g> <g> <path class="st172" d="M179.9,314.5l-6.2-11.3l20.3-11.2l6.2,11.3L179.9,314.5z M174.8,303.5l5.4,9.8l18.8-10.4l-5.4-9.8 L174.8,303.5z"/> </g> <g> <polygon points="165.6,333.3 161.8,326.4 162,326.2 165.8,333.2 "/> </g> <g> <polygon points="145.5,326.3 145.4,326.1 149.4,323.8 149.6,324 "/> </g> <g> <rect x="172.9" y="310" transform="matrix(0.8746 -0.4849 0.4849 0.8746 -128.4819 123.5075)" width="3.2" height="0.2"/> </g> <g> <rect x="197.6" y="321.5" transform="matrix(0.8712 -0.491 0.491 0.8712 -131.9717 140.2907)" width="7.4" height="0.2"/> </g> <g> <polygon points="176.4,335.6 176.2,335.4 180.7,332.9 180.8,333.1 "/> </g> <g> <path class="st172" d="M192.9,335.2l-10.6-3l3-10.6l10.6,3L192.9,335.2z M183.3,331.6l9,2.6l2.6-9l-9-2.6L183.3,331.6z"/> </g> <g> <polygon points="210.4,308.6 202.7,294.6 198,297.2 197.9,297 202.7,294.3 202.8,294.4 210.6,308.4 "/> </g> </g> <g> <rect x="130.3" y="304.9" transform="matrix(0.8749 -0.4842 0.4842 0.8749 -150.0684 110.7356)" class="st6" width="18.1" height="82.1"/> </g> <g> <rect x="144.9" y="301.9" transform="matrix(0.8748 -0.4845 0.4845 0.8748 -147.165 113.5103)" class="st170" width="2.2" height="79.1"/> </g> </g> <g id="paper_clip_3_"> <path class="st172" d="M241.4,359.8l-0.1-0.1c-1.8-1.2-2.2-3.8-0.9-5.8l5.6-8.6c0.1-0.2,0.4-0.3,0.6-0.2c0.2,0.1,0.3,0.4,0.1,0.7 l-5.6,8.6c-1,1.5-0.7,3.5,0.7,4.5l0.1,0.1c1.4,0.9,3.4,0.4,4.4-1.1l7.3-11.3c0.8-1.2,0.5-2.6-0.5-3.3c-1.1-0.7-2.5-0.3-3.3,0.9 l-5.7,8.8c-0.4,0.6-0.3,1.4,0.3,1.8l0.1,0.1c0.6,0.4,1.4,0.2,1.8-0.5l3.7-5.7c0.1-0.2,0.4-0.3,0.6-0.2c0.2,0.1,0.3,0.4,0.1,0.7 l-3.7,5.7c-0.7,1.1-2.1,1.4-3.1,0.8l-0.1-0.1c-1-0.6-1.2-2-0.5-3.1l5.7-8.8c1-1.6,3.1-2.1,4.6-1.2c1.5,1,1.8,3,0.8,4.7l-7.3,11.3 C245.8,360.3,243.2,361,241.4,359.8z"/> </g> <g> <g> <polygon class="st173" points="118.6,279.5 192.3,277.3 192.2,274.5 118.5,276.7 118.6,279.5 "/> </g> <g> <path class="st173" d="M127,278.5c0,0-7.1,4-6.9,6.8c0.2,3.6,1.8,2.4,1.8,2.4s6.3-6.7,8.6-8.4c0.5-0.4-1.6-0.8-1.6-0.8L127,278.5 L127,278.5z"/> </g> <g> <path class="st173" d="M184.5,276.7c0,0,7.3,3.6,7.3,6.3c0,3.6-1.7,2.5-1.7,2.5s-6.7-6.3-9.1-7.9c-0.5-0.3,1.5-0.9,1.5-0.9 L184.5,276.7L184.5,276.7z"/> </g> <g> <g> <path class="st4" d="M197.4,271.2l0.1,4.5c-3.8,1.3-3.8,9.9-3.8,9.9s-1.5,11.9-15.4,12.3c-16.2,0.5-19-14.6-19.6-17.1 c-0.6-2.2-2.5-2.3-3-2.3c-0.5,0-2.5,0.3-2.9,2.5c-0.5,2.5-2.3,17.8-18.5,18.2c-13.4,0.4-15.3-11.4-15.3-11.4s-1.4-8.5-5.2-9.6 l-0.1-4.5c0,0,3.6-1.9,14.3-2.2c10.6-0.3,16.8,1,16.8,1s7.9,1.4,10.8,1.3c3-0.1,10.7-2,10.7-2s6.1-1.7,16.8-2.1 C193.7,269.5,197.4,271.2,197.4,271.2L197.4,271.2z M140,273.6c0,0-5.2-1-12.9,0.5c-7.7,1.5-7.1,6.8-6.4,10.1 c0.7,3.4,1.8,13.6,14.8,12.8c4.8-0.5,12.5-4,14.5-14C151.7,274.8,140,273.6,140,273.6L140,273.6z M162,282.6 c2.7,9.9,10.5,12.9,15.4,13.1c13,0,13.4-10.3,14-13.7c0.5-3.4,0.8-8.7-7-9.7c-7.8-1.1-12.9,0.3-12.9,0.3S159.8,274.6,162,282.6 L162,282.6z"/> </g> </g> <g> <g> <path class="st174" d="M125.6,279.3l-5.1,0.2c-0.1,0.6-0.2,1.3-0.1,1.9c0,0.8,0.1,1.6,0.3,2.3C121.6,282.1,124,280.3,125.6,279.3 L125.6,279.3z M149.5,278.6l-19,0.6c0,0,0,0,0,0c-2.3,1.7-8.6,8.4-8.6,8.4s-0.2,0.1-0.4,0.2c1.2,4.1,4.1,9.6,13.2,9.3 c0.2,0,0.5,0,0.7,0c4.8-0.5,12.5-4,14.5-14c0.1-0.6,0.2-1.2,0.2-1.8C150.1,280.2,149.9,279.4,149.5,278.6L149.5,278.6z M134.1,273.3c-2,0.1-4.4,0.3-7.1,0.8c-2.6,0.5-4.2,1.4-5.2,2.5l24.9-0.8c-3-1.9-6.8-2.3-6.8-2.3S137.8,273.2,134.1,273.3 L134.1,273.3z"/> </g> </g> <g> <path class="st175" d="M146.8,275.9l-24.9,0.8c-0.8,0.9-1.2,1.8-1.4,2.8l5.1-0.2c0.8-0.5,1.4-0.9,1.4-0.9l2-0.1c0,0,2,0.4,1.6,0.8 l19-0.6C148.9,277.5,147.9,276.6,146.8,275.9L146.8,275.9z"/> </g> <g> <path class="st175" d="M128.9,278.4l-2,0.1c0,0-0.6,0.3-1.4,0.9c-1.5,1-4,2.7-5,4.4c0,0.2,0.1,0.4,0.1,0.5 c0.2,0.8,0.4,2.1,0.8,3.6c0.2-0.1,0.4-0.2,0.4-0.2s6.3-6.7,8.6-8.4c0,0,0,0,0,0C131,278.8,128.9,278.4,128.9,278.4L128.9,278.4z"/> </g> <g> <path class="st176" d="M134.1,273.3c-2,0.1-4.4,0.3-7.1,0.8c-5.7,1.1-6.9,4.3-6.8,7.3c0-0.6,0-1.3,0.1-1.9c0.2-1,0.6-2,1.4-2.8 c1-1.1,2.7-2,5.2-2.5C129.8,273.6,132.2,273.4,134.1,273.3c3.7-0.1,5.9,0.3,5.9,0.3s3.8,0.4,6.8,2.3c1.1,0.7,2.1,1.6,2.7,2.7 c0.4,0.8,0.7,1.6,0.7,2.6c-0.2-6.6-10.2-7.6-10.2-7.6S137.8,273.2,134.1,273.3L134.1,273.3z"/> </g> <g> <g> <path class="st174" d="M181,277.7l-18.7,0.6c-0.4,0.8-0.6,1.7-0.5,2.6c0,0.6,0.1,1.2,0.3,1.8c2.7,9.9,10.5,12.9,15.4,13.1l0,0 c0.2,0,0.5,0,0.7,0l0,0h0c9.1-0.3,11.7-5.8,12.6-10c0,0,0,0,0,0c-0.3,0-0.6-0.2-0.6-0.2S183.4,279.2,181,277.7L181,277.7 L181,277.7z M191.3,277.3l-5.4,0.2c1.7,1,4.4,2.7,5.4,4.3c0.1-0.8,0.2-1.7,0.2-2.7C191.6,278.6,191.5,277.9,191.3,277.3 L191.3,277.3z M177.3,272C177.3,272,177.3,272,177.3,272c-3.7,0.1-5.8,0.7-5.8,0.7l0,0c0,0-3.8,0.6-6.6,2.7l24.9-0.8 c-1.1-1.1-2.8-1.9-5.4-2.2l0,0c0,0-0.1,0-0.1,0C181.6,272,179.2,271.9,177.3,272C177.3,272,177.3,272,177.3,272L177.3,272z"/> </g> </g> <g> <path class="st175" d="M189.7,274.6l-24.9,0.8c-1,0.8-2,1.7-2.5,2.9l18.7-0.6c-0.5-0.3,1.5-0.9,1.5-0.9l2-0.1c0,0,0.6,0.3,1.4,0.8 l5.4-0.2C191.1,276.3,190.6,275.4,189.7,274.6L189.7,274.6z"/> </g> <g> <path class="st175" d="M184.5,276.7l-2,0.1c0,0-2,0.5-1.5,0.9l0,0c2.4,1.6,9.1,7.9,9.1,7.9s0.3,0.2,0.6,0.2c0,0,0,0,0,0 c0.3-1.5,0.5-2.8,0.6-3.6c0-0.1,0-0.2,0-0.3c-1-1.6-3.7-3.4-5.4-4.3C185.1,277,184.5,276.7,184.5,276.7L184.5,276.7z"/> </g> <g> <path class="st176" d="M178.1,295.8L178.1,295.8L178.1,295.8L178.1,295.8L178.1,295.8z M177.4,295.8c0.2,0,0.5,0,0.7,0 C177.9,295.8,177.6,295.8,177.4,295.8L177.4,295.8z M184.4,272.4L184.4,272.4c2.6,0.3,4.3,1.2,5.4,2.2c0.8,0.8,1.3,1.8,1.6,2.8 c0.2,0.6,0.2,1.2,0.3,1.9C191.5,276.3,190.1,273.2,184.4,272.4L184.4,272.4L184.4,272.4z M171.4,272.7L171.4,272.7 c0,0-9.9,1.6-9.7,8.2c0-1,0.2-1.9,0.5-2.6c0.5-1.2,1.5-2.1,2.5-2.9C167.6,273.3,171.4,272.7,171.4,272.7L171.4,272.7L171.4,272.7z M177.3,272c1.9-0.1,4.3,0,7,0.4C181.6,272,179.2,271.9,177.3,272L177.3,272z M177.3,272C177.3,272,177.3,272,177.3,272 C177.3,272,177.3,272,177.3,272L177.3,272L177.3,272z"/> </g> <g class="st54"> <path class="st6" d="M163.3,286.1l17.7-8.4l9.8,8.1c0,0-1.9,9.2-11.6,9.9C169.4,296.2,167.5,290,163.3,286.1z"/> </g> </g> <g class="st177"> <g class="st178"> <path class="st4" d="M296.7,171.8h-5l0.1,8.3h-58.3l-0.3-8.3h-4.7l0.4,9.6c0.1,2.5,2.8,4.4,6.2,4.4h55.5c3.5,0,6.4-2.1,6.3-4.8 L296.7,171.8z"/> </g> </g> <g> <g class="st3"> <g> <path d="M399.3,344.4c7-10.7,4-25.1-6.7-32.2c-10.7-7-25.1-4-32.2,6.7c-7,10.7-4,25.1,6.7,32.2 C377.9,358.2,392.3,355.2,399.3,344.4z"/> </g> </g> <g> <path class="st179" d="M394.5,340.6c6.3-9.6,3.6-22.4-6-28.7c-9.6-6.3-22.4-3.6-28.7,6c-6.3,9.6-3.6,22.4,6,28.7 C375.4,352.8,388.3,350.1,394.5,340.6z"/> </g> <g> <path class="st180" d="M390.5,338c4.8-7.4,2.8-17.3-4.6-22.1c-7.4-4.8-17.3-2.8-22.1,4.6c-4.8,7.4-2.8,17.3,4.6,22.1 C375.8,347.4,385.7,345.3,390.5,338z"/> </g> <g> <path class="st179" d="M399.9,344.5c-0.7,1-2,1.3-3.1,0.6l-4.2-2.7l2.9-4.4l4.2,2.7c1,0.7,1.3,2,0.6,3.1L399.9,344.5z"/> </g> <g> <path class="st181" d="M366.1,335.6l23.1-12.4c0,0,3.6,6.5-1.1,13.4C382.9,344.3,370.6,343.7,366.1,335.6z"/> </g> </g> <g> <path class="st4" d="M259.2,170.2h29.2c1.2,0,0.9,1.4,2.8,4.4c2.7,1.2,6.5,0.1,5.8-3.5l-2.7-7.3c0-3.2-2.6-5.8-5.8-5.8h-29.2h1H237 c-3.2,0-5.8,2.6-5.8,5.8l-2.7,7.3c-1.1,3.5,3,4.6,5.8,3.5c1.9-3,1.6-4.4,2.8-4.4h23.2H259.2z"/> </g> <g> <path class="st5" d="M262.4,213c-31,0-53.1-5.1-78.8-10.9c-9.4-2.1-19.1-4.3-30.1-6.5l0.3-1.6c11,2.2,20.7,4.4,30.1,6.6 c26.6,6.1,47.7,10.9,78.4,10.9c47.3,0,105.9-17.6,106.5-17.8l0.5,1.6C368.7,195.3,309.9,213,262.4,213z"/> </g> <g class="st3"> <polygon class="st4" points="225.4,350.2 225.4,350.2 225.4,350.2 224.7,350.1 223.4,350 222.1,348.1 222,348 220.9,347.7 220.9,347.7 186.4,400.5 188,401.6 189,402.2 190.7,403.3 191.7,404 226.2,351.2 226.2,351.1 225.7,350.5 "/> <polygon class="st4" points="227.5,341.5 221.4,347 222.6,347.3 223.8,349.4 225.9,349.5 226.6,350.4 229.2,342.6 230.5,338.8 "/> </g> <g id="pencils_2_"> <g> <radialGradient id="SVGID_7_" cx="2116.3369" cy="-2348.9417" r="25.5342" gradientTransform="matrix(0.5407 0.3537 -0.5487 0.839 -2224.1494 1591.3826)" gradientUnits="userSpaceOnUse"> <stop offset="0" style="stop-color:#F96E1A"/> <stop offset="1" style="stop-color:#EF610E"/> </radialGradient> <polygon class="st182" points="225.8,347.2 223.8,347 222.5,345 221.3,344.6 186.7,397.5 192,400.9 226.6,348.1 "/> <g> <polygon class="st183" points="221.3,344.6 221.3,344.6 186.7,397.5 187.8,398.1 222.5,345 "/> <polygon class="st184" points="222.5,345 187.8,398.1 189.4,399.2 223.5,347 "/> <polygon class="st185" points="223.5,347 189.4,399.2 191,400.3 225.8,347.1 "/> <polygon class="st183" points="191,400.3 192,400.9 226.6,348.1 226.6,348.1 225.8,347.1 "/> </g> <polygon class="st186" points="229.6,339.5 227.9,338.4 221.8,344 223,344.3 224.2,346.3 226.3,346.5 227,347.3 "/> <polygon points="230.9,335.7 227.9,338.4 229.6,339.5 "/> </g> </g> <g> <g> <path class="st187" d="M185,357.4C185,357.3,185,357.3,185,357.4L185,357.4l-0.3,0l-9.4,3.3l10,1l0.3,0h0c0,0,0,0,0,0 c0-0.4,0.1-0.8,0-1.2c0-0.1,0-0.1,0-0.2c0-0.4,0-0.9-0.1-1.3c-0.1-0.3-0.1-0.6-0.2-0.9C185.2,357.9,185.1,357.6,185,357.4z"/> </g> <g> <path class="st188" d="M185.4,362.5l-0.3,0l-8-0.8v0l1.4,8.7l0,0l0.2,1.4c1.5-0.3,2.9-0.8,4.1-1.7c1.2-0.9,2.3-2,3.1-3.3 c0.8-1.3,1.2-2.7,1.4-4.2L185.4,362.5z"/> </g> <g> <path class="st189" d="M175.3,360.7l9.4-3.3c-1-2.9-3.2-5.1-5.9-6.2L175.3,360.7L175.3,360.7z"/> </g> <g> <path class="st190" d="M175.3,360.7L175.3,360.7L175.3,360.7L175.3,360.7L175.3,360.7l3.6-9.5c-1.7-0.7-3.5-0.9-5.4-0.6 c-0.3,0.1-0.6,0.1-1,0.2c-0.1,0-0.1,0-0.2,0.1c-0.3,0.1-0.6,0.2-0.9,0.3c0,0-0.1,0-0.1,0c-0.3,0.1-0.6,0.3-0.9,0.4c0,0,0,0,0,0 c-0.3,0.2-0.6,0.4-0.9,0.6c0,0,0,0,0,0c-0.3,0.2-0.6,0.4-0.8,0.7c0,0,0,0-0.1,0.1c-0.2,0.2-0.5,0.4-0.7,0.7c0,0-0.1,0.1-0.1,0.1 c-0.2,0.2-0.4,0.5-0.6,0.7c0,0-0.1,0.1-0.1,0.1c-0.2,0.3-0.4,0.6-0.6,0.9c0,0,0,0,0,0c-0.8,1.3-1.2,2.7-1.4,4.2 c0,0.4-0.1,0.8,0,1.2c0,0.1,0,0.1,0,0.2c0,0.4,0.1,0.9,0.1,1.3c0,0.3,0.1,0.6,0.2,0.9c0.1,0.3,0.2,0.6,0.3,0.8 c0.5,1.4,1.3,2.7,2.4,3.8c0.3,0.3,0.5,0.5,0.8,0.7c0,0,0.1,0.1,0.1,0.1c0.3,0.2,0.5,0.4,0.8,0.6c0,0,0.1,0.1,0.1,0.1 c0.3,0.2,0.6,0.3,0.9,0.5c0,0,0.1,0,0.1,0c0.3,0.2,0.6,0.3,1,0.4c0,0,0,0,0,0c0.8,0.3,1.6,0.5,2.5,0.6c0.1,0,0.2,0,0.2,0 c0.3,0,0.7,0,1,0c0.1,0,0.2,0,0.3,0c0.4,0,0.8-0.1,1.1-0.1c0,0,0.1,0,0.1,0L175.3,360.7L175.3,360.7z"/> </g> </g> <g class="st1"> <path class="st2" d="M182.2,403.7l0-1.7c2.8,0,5.6-0.2,8.3-0.5l0.2,1.7C187.8,403.5,185,403.7,182.2,403.7z M173.7,403.5 c-2.8-0.2-5.6-0.5-8.4-0.9l0.2-1.7c2.8,0.4,5.5,0.7,8.3,0.9L173.7,403.5z M199,402.1l-0.3-1.6c2.7-0.5,5.4-1.1,8.1-1.8l0.4,1.6 C204.5,400.9,201.7,401.6,199,402.1z M157,401c-2.5-0.7-5.2-1.6-8-2.9l0.7-1.5c2.7,1.2,5.3,2.1,7.8,2.8L157,401z M215.2,397.6 l-0.6-1.6c2.6-0.9,5.2-2,7.7-3.1l0.7,1.5C220.5,395.6,217.8,396.7,215.2,397.6z M141.5,394.2c-2.4-1.4-4.7-3-7-4.7l1-1.3 c2.2,1.7,4.6,3.2,6.9,4.6L141.5,394.2z M230.6,390.8l-0.8-1.5c2.4-1.3,4.8-2.7,7.2-4.1l0.9,1.4C235.5,388.1,233,389.5,230.6,390.8z M127.9,384.1c-2.1-1.9-4.1-3.9-6-6l1.2-1.1c1.8,2,3.8,4,5.8,5.9L127.9,384.1z M346.4,382.2l0-1.7c2.8,0,5.6-0.2,8.3-0.4l0.2,1.7 C352.1,382.1,349.3,382.2,346.4,382.2z M245,382l-1-1.4c2.2-1.5,4.5-3.2,6.7-4.9l1,1.3C249.5,378.8,247.2,380.4,245,382z M338,381.8c-2.8-0.3-5.6-0.7-8.4-1.2l0.3-1.6c2.7,0.5,5.5,0.9,8.2,1.2L338,381.8z M363.2,380.4l-0.4-1.6c2.7-0.6,5.4-1.4,8-2.3 l0.6,1.6C368.8,379,366,379.8,363.2,380.4z M321.4,378.6c-2.7-0.8-5.4-1.8-8-2.9l0.7-1.5c2.5,1.1,5.1,2,7.8,2.8L321.4,378.6z M379.2,374.7l-0.8-1.5c2.5-1.3,4.8-2.8,7-4.4l1,1.3C384.1,371.8,381.7,373.3,379.2,374.7z M305.8,372c-2.5-1.4-4.9-3-7.1-4.7 l1-1.3c2.1,1.6,4.5,3.2,6.9,4.5L305.8,372z M258.3,371.7l-1.1-1.3c2.1-1.7,4.2-3.6,6.3-5.5l1.1,1.2 C262.5,368.1,260.4,370,258.3,371.7z M116.6,371.5c-1.7-2.3-3.2-4.7-4.6-7.1l1.5-0.8c1.3,2.4,2.9,4.7,4.5,7L116.6,371.5z M392.7,364.4l-1.2-1.1c1.9-2,3.5-4.2,5-6.5l1.4,0.9C396.4,360.1,394.6,362.3,392.7,364.4z M292.3,361.7c-2-2.1-3.8-4.3-5.3-6.7 l1.4-0.9c1.5,2.2,3.2,4.4,5.1,6.4L292.3,361.7z M270.8,360.4l-1.2-1.2c1.9-1.9,3.9-3.8,5.9-5.9l1.2,1.2 C274.7,356.6,272.7,358.6,270.8,360.4z M108.3,356.8c-1.1-2.6-2.1-5.3-2.8-8l1.6-0.5c0.7,2.6,1.7,5.2,2.8,7.8L108.3,356.8z M401.6,349.9l-1.6-0.5c0.5-1.8,1.2-4.6,1.7-8.1l1.7,0.2C402.8,345.2,402.1,348.1,401.6,349.9z M282.6,348.4l-1.2-1.2 c0.4-0.4,0.8-0.9,1.2-1.3c-0.8-2.2-1.3-4.5-1.7-6.8l1.7-0.3c0.3,1.9,0.8,3.8,1.4,5.7c1.1-1.2,2.1-2.3,3.2-3.5l1.2,1.1 c-1.2,1.4-2.5,2.7-3.8,4.1c0.1,0.1,0.1,0.3,0.2,0.4l-0.9,0.4C283.4,347.6,283,348,282.6,348.4z M103.6,340.5 c-0.4-2.8-0.6-5.6-0.7-8.5l1.7,0c0,2.8,0.3,5.5,0.7,8.2L103.6,340.5z M293.9,336.1l-1.2-1.1l1.2-1.3c1.5-1.7,3-3.3,4.5-4.9l1.2,1.1 c-1.5,1.6-2.9,3.2-4.5,4.9L293.9,336.1z M402.3,333.1L402.3,333.1c0-2.9-0.2-5.7-0.7-8.2l1.6-0.3c0.5,2.6,0.7,5.5,0.7,8.4 L402.3,333.1z M282.1,330.8l-1.7-0.1c0.1-2.8,0.5-5.6,1.2-8.4l1.6,0.4C282.6,325.4,282.2,328.1,282.1,330.8z M105,323.7l-1.7-0.2 c0.3-2.8,0.8-5.6,1.5-8.4l1.6,0.4C105.8,318.3,105.3,321,105,323.7z M305.3,323.7l-1.2-1.2c2.2-2.3,4.1-4.3,5.9-6l1.2,1.2 C309.4,319.4,307.4,321.4,305.3,323.7z M399.1,317.2c-1.2-2.5-2.7-4.8-4.5-6.7l1.2-1.1c1.9,2.1,3.5,4.5,4.8,7.2L399.1,317.2z M285.7,314.7l-1.6-0.6c1-2.5,2.2-5.1,3.6-7.7l1.5,0.8C287.8,309.7,286.6,312.3,285.7,314.7z M317.3,312.1l-1.1-1.3 c2.5-2.1,4.8-3.7,6.9-4.9l0.8,1.5C321.9,308.5,319.7,310.1,317.3,312.1z M108.8,307.6l-1.6-0.6c0.9-2.6,2-5.2,3.2-7.8l1.5,0.7 C110.8,302.5,109.7,305.1,108.8,307.6z M388.3,305.4c-2.2-1.3-4.8-2.4-7.5-3.2l0.5-1.6c2.9,0.9,5.5,2,7.9,3.4L388.3,305.4z M331.6,304.6l-0.4-1.6c2.8-0.7,5.6-1.3,8.2-1.8l0.3,1.6C337.1,303.3,334.4,303.9,331.6,304.6z M347.9,301.3l-0.2-1.7 c2.9-0.4,5.7-0.8,8.4-1l0.1,1.7C353.6,300.6,350.8,300.9,347.9,301.3z M372.8,300.5c-2.6-0.3-5.4-0.5-8.3-0.5l0-1.7 c3,0,5.8,0.2,8.5,0.5L372.8,300.5z M293.4,300.1l-1.4-0.9c1.5-2.3,3.2-4.6,5-6.8l1.3,1C296.6,295.6,294.9,297.9,293.4,300.1z M115.8,292.6l-1.5-0.8c1.1-1.9,2.3-3.8,3.5-5.7l1.4,0.9C118.1,288.8,116.9,290.7,115.8,292.6z M303.7,287l-1.2-1.1 c1.8-2,3.7-4,5.8-6.1l1.2,1.2C307.4,283.1,305.5,285,303.7,287z M315.5,275.3l-1.1-1.2c2.1-1.9,4.2-3.8,6.3-5.6l1.1,1.3 C319.7,271.5,317.6,273.4,315.5,275.3z M328.1,264.2l-1.1-1.3c2.2-1.9,4.3-3.7,6.3-5.5l1.1,1.3 C332.4,260.5,330.2,262.3,328.1,264.2z M340.6,252.9l-1.2-1.2c2.2-2.1,4.1-4.1,5.7-6l1.3,1.1C344.7,248.8,342.8,250.8,340.6,252.9z M351.6,240.1l-1.4-0.9c1.6-2.4,2.9-4.8,4-7.2l1.5,0.7C354.7,235.2,353.3,237.6,351.6,240.1z"/> </g> </svg>